HIERARCHY
ROOT hips
{
  OFFSET 0 10.6860622 2.3727825e-15
  CHANNELS 6 Xposition Yposition Zposition Yrotation Xrotation Zrotation
  JOINT leftUpperLeg
  {
    OFFSET 0.6642549969 -0.9402397400000004 0
    CHANNELS 3 Yrotation Xrotation Zrotation
    JOINT leftLowerLeg
    {
      OFFSET 0 -3.997221335632195 0
      CHANNELS 3 Yrotation Xrotation Zrotation
      JOINT leftFoot
      {
        OFFSET -0.13777839790000004 -4.6145792000000005 -0.22186036399999998
        CHANNELS 3 Yrotation Xrotation Zrotation
        JOINT leftToes
        {
          OFFSET -0.03777410834999995 -0.9130806927000008 0.85230013
          CHANNELS 3 Yrotation Xrotation Zrotation
          End Site
          {
            OFFSET -0.03777410834999995 -0.9130806927000008 0.85230013
          }
        }
      }
    }
  }
  JOINT rightUpperLeg
  {
    OFFSET -0.6642778626 -0.9402397400000004 0
    CHANNELS 3 Yrotation Xrotation Zrotation
    JOINT rightLowerLeg
    {
      OFFSET 0 -3.997221452859387 0
      CHANNELS 3 Yrotation Xrotation Zrotation
      JOINT rightFoot
      {
        OFFSET 0.1377926176 -4.6145792000000005 -0.22185782299999995
        CHANNELS 3 Yrotation Xrotation Zrotation
        JOINT rightToes
        {
          OFFSET 0.037780746850000047 -0.9130806927000008 0.85230167
          CHANNELS 3 Yrotation Xrotation Zrotation
          End Site
          {
            OFFSET 0.037780746850000047 -0.9130806927000008 0.85230167
          }
        }
      }
    }
  }
  JOINT spine
  {
    OFFSET 0 0.13988381660000015 0
    CHANNELS 3 Yrotation Xrotation Zrotation
    JOINT chest
    {
      OFFSET 0 0.6191039003973773 0
      CHANNELS 3 Yrotation Xrotation Zrotation
      JOINT upperChest
      {
        OFFSET 0 0.9855186130586943 0
        CHANNELS 3 Yrotation Xrotation Zrotation
        JOINT leftShoulder
        {
          OFFSET 0.1807663869 1.5087829790000005 0
          CHANNELS 3 Yrotation Xrotation Zrotation
          JOINT leftUpperArm
          {
            OFFSET 0.5985063006419806 0 0
            CHANNELS 3 Yrotation Xrotation Zrotation
            JOINT leftLowerArm
            {
              OFFSET 2.2993332369501065 0 0
              CHANNELS 3 Yrotation Xrotation Zrotation
              JOINT leftHand
              {
                OFFSET 2.395047042602395 0 0
                CHANNELS 3 Yrotation Xrotation Zrotation
                JOINT leftIndexProximal
                {
                  OFFSET 0.5766295810000004 0.04556643899499946 0.17265095988184
                  CHANNELS 3 Yrotation Xrotation Zrotation
                  JOINT leftIndexIntermediate
                  {
                    OFFSET 0.2957229000000008 -0.019352197700001517 -0.007932640616999987
                    CHANNELS 3 Yrotation Xrotation Zrotation
                    JOINT leftIndexDistal
                    {
                      OFFSET 0.19008243099999922 -0.012484908149998475 -0.002786250786000012
                      CHANNELS 3 Yrotation Xrotation Zrotation
                      End Site
                      {
                        OFFSET 0.19008243099999922 -0.012484908149998475 -0.002786250786000012
                      }
                    }
                  }
                }
                JOINT leftMiddleProximal
                {
                  OFFSET 0.5834975091000001 0.0524350405149987 0.02204081888183999
                  CHANNELS 3 Yrotation Xrotation Zrotation
                  JOINT leftMiddleIntermediate
                  {
                    OFFSET 0.33880573540000003 -0.019871473270000717 -0.00000971183179999946
                    CHANNELS 3 Yrotation Xrotation Zrotation
                    JOINT leftMiddleDistal
                    {
                      OFFSET 0.20676022730000088 -0.012221336379999448 0.0001471936708000235
                      CHANNELS 3 Yrotation Xrotation Zrotation
                      End Site
                      {
                        OFFSET 0.20676022730000088 -0.012221336379999448 0.0001471936708000235
                      }
                    }
                  }
                }
                JOINT leftLittleProximal
                {
                  OFFSET 0.5344154683999995 -0.012880921405001189 -0.24414037221816004
                  CHANNELS 3 Yrotation Xrotation Zrotation
                  JOINT leftLittleIntermediate
                  {
                    OFFSET 0.21758961730000093 -0.011650919939999227 0.011893592810000034
                    CHANNELS 3 Yrotation Xrotation Zrotation
                    JOINT leftLittleDistal
                    {
                      OFFSET 0.1475273964999999 -0.008152365682999818 0.006001092492999946
                      CHANNELS 3 Yrotation Xrotation Zrotation
                      End Site
                      {
                        OFFSET 0.1475273964999999 -0.008152365682999818 0.006001092492999946
                      }
                    }
                  }
                }
                JOINT leftRingProximal
                {
                  OFFSET 0.5799399463000003 0.026911854694997794 -0.12150566991816003
                  CHANNELS 3 Yrotation Xrotation Zrotation
                  JOINT leftRingIntermediate
                  {
                    OFFSET 0.26167887460000006 -0.013480186499999602 0.010996293000000053
                    CHANNELS 3 Yrotation Xrotation Zrotation
                    JOINT leftRingDistal
                    {
                      OFFSET 0.17667108799999987 -0.008990287899999228 0.0055541023999999065
                      CHANNELS 3 Yrotation Xrotation Zrotation
                      End Site
                      {
                        OFFSET 0.17667108799999987 -0.008990287899999228 0.0055541023999999065
                      }
                    }
                  }
                }
                JOINT leftThumbProximal
                {
                  OFFSET 0.11018806699999972 -0.09448718900500053 0.17047963138184
                  CHANNELS 3 Yrotation Xrotation Zrotation
                  JOINT leftThumbIntermediate
                  {
                    OFFSET 0.31062601459999983 -0.08126270900000132 0.15443142000000007
                    CHANNELS 3 Yrotation Xrotation Zrotation
                    JOINT leftThumbDistal
                    {
                      OFFSET 0.21627175790000086 -0.08833193599999878 0.018771167799999988
                      CHANNELS 3 Yrotation Xrotation Zrotation
                      End Site
                      {
                        OFFSET 0.21627175790000086 -0.08833193599999878 0.018771167799999988
                      }
                    }
                  }
                }
              }
            }
          }
        }
        JOINT neck
        {
          OFFSET 0 1.5463305265074576 0
          CHANNELS 3 Yrotation Xrotation Zrotation
          JOINT head
          {
            OFFSET 0 0.8456443600000344 0
            CHANNELS 3 Yrotation Xrotation Zrotation
            JOINT leftEye
            {
              OFFSET 0.30408573140000006 0.5104519199999995 0.1276382305
              CHANNELS 3 Yrotation Xrotation Zrotation
              End Site
              {
                OFFSET 0.30408573140000006 0.5104519199999995 0.1276382305
              }
            }
            JOINT rightEye
            {
              OFFSET -0.30409491089999996 0.5104519199999995 0.1276379445
              CHANNELS 3 Yrotation Xrotation Zrotation
              End Site
              {
                OFFSET -0.30409491089999996 0.5104519199999995 0.1276379445
              }
            }
            JOINT jaw
            {
              OFFSET -3.155239131000001e-7 -0.11984121820000082 0.60178107
              CHANNELS 3 Yrotation Xrotation Zrotation
              End Site
              {
                OFFSET -3.155239131000001e-7 -0.11984121820000082 0.60178107
              }
            }
          }
        }
        JOINT rightShoulder
        {
          OFFSET -0.1807303465 1.5087829790000005 0
          CHANNELS 3 Yrotation Xrotation Zrotation
          JOINT rightUpperArm
          {
            OFFSET -0.5985063796536958 0 0
            CHANNELS 3 Yrotation Xrotation Zrotation
            JOINT rightLowerArm
            {
              OFFSET -2.2993322059002854 0 0
              CHANNELS 3 Yrotation Xrotation Zrotation
              JOINT rightHand
              {
                OFFSET -2.395045314457259 0 0
                CHANNELS 3 Yrotation Xrotation Zrotation
                JOINT rightIndexProximal
                {
                  OFFSET -0.5764487688300002 0.0441371204405987 0.17361932004999997
                  CHANNELS 3 Yrotation Xrotation Zrotation
                  JOINT rightIndexIntermediate
                  {
                    OFFSET -0.29573011380000047 -0.01934826376999843 -0.007698921482999974
                    CHANNELS 3 Yrotation Xrotation Zrotation
                    JOINT rightIndexDistal
                    {
                      OFFSET -0.19008373999999884 -0.012503266380000655 -0.0026365778999999897
                      CHANNELS 3 Yrotation Xrotation Zrotation
                      End Site
                      {
                        OFFSET -0.19008373999999884 -0.012503266380000655 -0.0026365778999999897
                      }
                    }
                  }
                }
                JOINT rightMiddleProximal
                {
                  OFFSET -0.5834852037300005 0.05211639405060153 0.02307162440000001
                  CHANNELS 3 Yrotation Xrotation Zrotation
                  JOINT rightMiddleIntermediate
                  {
                    OFFSET -0.33880114510000003 -0.019952774050000954 0.0002455003561999819
                    CHANNELS 3 Yrotation Xrotation Zrotation
                    JOINT rightMiddleDistal
                    {
                      OFFSET -0.20675694929999955 -0.012273788999999091 0.00030209124000002766
                      CHANNELS 3 Yrotation Xrotation Zrotation
                      End Site
                      {
                        OFFSET -0.20675694929999955 -0.012273788999999091 0.00030209124000002766
                      }
                    }
                  }
                }
                JOINT rightLittleProximal
                {
                  OFFSET -0.5346811737299992 -0.011214256288399227 -0.24363941305000003
                  CHANNELS 3 Yrotation Xrotation Zrotation
                  JOINT rightLittleIntermediate
                  {
                    OFFSET -0.21757715980000092 -0.011771559690000988 0.01201554387
                    CHANNELS 3 Yrotation Xrotation Zrotation
                    JOINT rightLittleDistal
                    {
                      OFFSET -0.1475201849000004 -0.00822055339600003 0.006082065407000015
                      CHANNELS 3 Yrotation Xrotation Zrotation
                      End Site
                      {
                        OFFSET -0.1475201849000004 -0.00822055339600003 0.006082065407000015
                      }
                    }
                  }
                }
                JOINT rightRingProximal
                {
                  OFFSET -0.5800810755299999 0.027657985680600072 -0.12066365025000003
                  CHANNELS 3 Yrotation Xrotation Zrotation
                  JOINT rightRingIntermediate
                  {
                    OFFSET -0.26166445029999974 -0.013623118409999302 0.011164098990000045
                    CHANNELS 3 Yrotation Xrotation Zrotation
                    JOINT rightRingDistal
                    {
                      OFFSET -0.17666387530000027 -0.009072900100000503 0.005668185599999959
                      CHANNELS 3 Yrotation Xrotation Zrotation
                      End Site
                      {
                        OFFSET -0.17666387530000027 -0.009072900100000503 0.005668185599999959
                      }
                    }
                  }
                }
                JOINT rightThumbProximal
                {
                  OFFSET -0.10997596379000074 -0.09577489355940072 0.16989765924999997
                  CHANNELS 3 Yrotation Xrotation Zrotation
                  JOINT rightThumbIntermediate
                  {
                    OFFSET -0.31036620999999986 -0.08229339117999834 0.15440884469999996
                    CHANNELS 3 Yrotation Xrotation Zrotation
                    JOINT rightThumbDistal
                    {
                      OFFSET -0.21631306399999906 -0.08825326400000111 0.018656797720000014
                      CHANNELS 3 Yrotation Xrotation Zrotation
                      End Site
                      {
                        OFFSET -0.21631306399999906 -0.08825326400000111 0.018656797720000014
                      }
                    }
                  }
                }
              }
            }
          }
        }
      }
    }
  }
}
MOTION
Frames: 7
Frame Time: 0.03333333333333333
0 -10.610138021295173 -7.516013686107422 0 -90 0 0.4245475672221117 -1.1977287784468134 13.890568015564336 0.7252219909078336 6.859162586417135 3.987971873380412 2.3959397165843432 13.60013783127389 6.052984300663472 0 0 0 -0.477964183141143 -0.9940057764771858 -13.973329277079158 -0.7249407904550076 6.742502567165922 -3.960652357138682 -2.3999415304151075 13.59987870232295 -6.0569886142113925 0 0 0 0 18.39447341588267 0 -0.6970928864548637 24.18925374876228 -0.42291468144478817 0 0 0 8.287678876823255 1.0036580870038132 1.3342083853481452 6.771480488729351 29.676065033325113 -75.58187896200455 -75.23007277761982 33.997091265876904 -0.2459444912712883 -2.799176704474902 23.095882404497534 -7.1269748533671775 0 0 0 0 0 0 0 0 0 0 0 0 0 0 0 0 0 0 0 0 0 0 0 0 0 0 0 0 0 0 0 0 0 0 0 0 0 0 0 0 0 0 0 0 0 0 -12.116639147590933 0 0 -36.06362725532256 0 0 0 0 0 0 0 0 0 0 -8.295094098724359 0.9970358496312003 -1.2760999752607942 -6.782752422355138 29.67209123066097 75.5318616111823 75.21254773990198 33.999027315386186 0.2292055210455294 2.791199355450062 23.0950359193374 7.129097730590605 0 0 0 0 0 0 0 0 0 0 0 0 0 0 0 0 0 0 0 0 0 0 0 0 0 0 0 0 0 0 0 0 0 0 0 0 0 0 0 0 0 0 0 0 0
0 -10.610138021295173 -7.516013686107422 0 -90 0 0.32536846008377146 -1.6066550340859171 13.73260284858437 0.7486956366353343 7.5431276583431695 4.191094713426916 2.3959397165843432 13.60013783127389 6.052984300663472 0 0 0 -0.477964183141143 -0.9940057764771858 -13.973329277079158 -0.7396589205040538 7.193730071160819 -4.1012385757986936 -2.3999415304151075 13.599877823920208 -6.056987303962869 0 0 0 0 17.32805944902334 0 -0.7194487474549334 27.910704254464488 -0.4739335019988778 0 0 0 7.61099710092765 -0.6796038030996558 2.2368747351532123 6.696707215655051 29.83853604812216 -76.42995878426552 -75.68451770079234 33.99191769898669 -0.7327887147867469 -2.704964526163412 22.41224914743606 -6.11357039541235 0 0 0 0 0 0 0 0 0 0 0 0 0 0 0 0 0 0 0 0 0 0 0 0 0 0 0 0 0 0 0 0 0 0 0 0 0 0 0 0 0 0 0 0 0 0 -13.182757719383432 0 0 -37.57216336845262 0 0 0 0 0 0 0 0 0 0 -7.628871183825678 -0.6999632444014561 -2.055090717006863 -6.714395578014206 29.82447006019603 76.32002912500724 75.64289906662914 33.99350351204315 0.6917135499504433 2.689974177321236 22.408998348804086 6.12899897755671 0 0 0 0 0 0 0 0 0 0 0 0 0 0 0 0 0 0 0 0 0 0 0 0 0 0 0 0 0 0 0 0 0 0 0 0 0 0 0 0 0 0 0 0 0
0 -10.610138021295173 -7.516013686107422 0 -90 0 0.27619177317367805 -1.811232394012733 13.653866140983778 0.7613671583529636 7.885125227098752 4.292900616493224 2.3959397165843432 13.60013783127389 6.052984300663472 0 0 0 -0.477964183141143 -0.9940057764771858 -13.973329277079158 -0.7474419344402872 7.419343971010398 -4.171632768747361 -2.3999415304151075 13.599879580725695 -6.0569886142113925 0 0 0 0 16.79469403849329 0 -0.7324093165100302 29.77862072680357 -0.5008586976091983 0 0 0 7.262203706368008 -1.5181062691666731 2.69634031647475 6.65822721120043 29.919439198762912 -76.85470588647756 -75.91171327009558 33.98812834348592 -0.976188733827712 -2.6629113059548244 22.06974667056439 -5.608980787089444 0 0 0 0 0 0 0 0 0 0 0 0 0 0 0 0 0 0 0 0 0 0 0 0 0 0 0 0 0 0 0 0 0 0 0 0 0 0 0 0 0 0 0 0 0 0 -13.714928292823368 0 0 -38.32390906596681 0 0 0 0 0 0 0 0 0 0 -7.286616641258908 -1.5459159338688981 -2.4525567250585074 -6.679261411636133 29.900370374967466 76.71472375196359 75.85806073936182 33.98966877849035 0.9229452549358924 2.6443777841560405 22.065260116313556 5.6310841176534545 0 0 0 0 0 0 0 0 0 0 0 0 0 0 0 0 0 0 0 0 0 0 0 0 0 0 0 0 0 0 0 0 0 0 0 0 0 0 0 0 0 0 0 0 0
0 -10.610138021295173 -7.516013686107422 0 -90 0 0.1786599337173361 -2.2206034323006687 13.496895468657689 0.7885880803557552 8.569113608980738 4.4970245712771675 2.3959397165843432 13.60013783127389 6.052984300663472 0 0 0 -0.477964183141143 -0.9940057764771858 -13.973329277079158 -0.7638614150463536 7.870559846037251 -4.312632228065326 -2.3999415304151075 13.599877823920208 -6.056987303962869 0 0 0 0 15.727737107640321 0 -0.7623769268082644 33.52393263548304 -0.5580536713401965 0 0 0 6.54326429298829 -3.187744007396458 3.6321464574531004 6.579089362330413 30.080486147441672 -77.70550521588675 -76.36602838997965 33.978149142751136 -1.4629014022741371 -2.5888136351037097 21.383610091939893 -4.6039475928912506 0 0 0 0 0 0 0 0 0 0 0 0 0 0 0 0 0 0 0 0 0 0 0 0 0 0 0 0 0 0 0 0 0 0 0 0 0 0 0 0 0 0 0 0 0 0 -14.77740989986441 0 0 -39.82204369251016 0 0 0 0 0 0 0 0 0 0 -6.583339758461904 -3.231716591803873 -3.2639990719113876 -6.607104933003909 30.05153405952153 77.50523225047998 76.28828712721325 33.97982530302338 1.3853235055792343 2.5631264694302858 21.376581363776243 4.6394461060713965 0 0 0 0 0 0 0 0 0 0 0 0 0 0 0 0 0 0 0 0 0 0 0 0 0 0 0 0 0 0 0 0 0 0 0 0 0 0 0 0 0 0 0 0 0
0 -10.610138021295173 -7.516013686107422 0 -90 0 0.13030339670839933 -2.4253921365578788 13.418646208638537 0.8031430006043995 8.911091662462326 4.599354369051575 2.3959397165843432 13.60013783127389 6.052984300663472 0 0 0 -0.477964183141143 -0.9940057764771858 -13.973329277079158 -0.7724988475801808 8.096157601363243 -4.3832408066684145 -2.3999415304151075 13.59987870232295 -6.0569886142113925 0 0 0 0 15.194191039980078 0 -0.779612017336647 35.39933237003017 -0.5885626108362346 0 0 0 6.172930143081676 -4.018429228703967 4.108730110817037 6.538425551853256 30.160638904357356 -78.13157756958034 -76.59313031799279 33.971963697217994 -1.7062007981503804 -2.556726457417303 21.040061163469286 -4.1034663831173 0 0 0 0 0 0 0 0 0 0 0 0 0 0 0 0 0 0 0 0 0 0 0 0 0 0 0 0 0 0 0 0 0 0 0 0 0 0 0 0 0 0 0 0 0 0 -15.3076738001901 0 0 -40.56833083834012 0 0 0 0 0 0 0 0 0 0 -6.222120542571267 -4.071157290539681 -3.6782050798865056 -6.570081306615529 30.126790799312946 77.90104896995413 76.5033479969171 33.97382504894222 1.6164583562665729 2.5274298709426746 21.03172975225703 4.145684138636499 0 0 0 0 0 0 0 0 0 0 0 0 0 0 0 0 0 0 0 0 0 0 0 0 0 0 0 0 0 0 0 0 0 0 0 0 0 0 0 0 0 0 0 0 0
0 -10.610138021295173 -7.516013686107422 0 -90 0 0.03440617234311167 -2.8351677807433693 13.262631654602206 0.8341543640883688 9.594969902468721 4.804579774839351 2.3959397165843432 13.60013783127389 6.052984300663472 0 0 0 -0.477964183141143 -0.9940057764771858 -13.973329277079158 -0.7906328721049348 8.547325166306534 -4.524684253928274 -2.3999415304151075 13.599879580725695 -6.0569886142113925 0 0 0 0 14.127086800008508 0 -0.8192807844003215 39.15061995717993 -0.6541272318964237 0 0 0 5.4100704436399365 -5.670403002184048 5.079875806342899 6.454954854844774 30.320131520261974 -78.98490907502115 -77.04714271737437 33.95717728157035 -2.192638377763056 -2.5023800563736796 20.35224860544948 -3.106496272104785 0 0 0 0 0 0 0 0 0 0 0 0 0 0 0 0 0 0 0 0 0 0 0 0 0 0 0 0 0 0 0 0 0 0 0 0 0 0 0 0 0 0 0 0 0 0 -16.36612978931001 0 0 -42.05502820830789 0 0 0 0 0 0 0 0 0 0 -5.480002014109223 -5.742076011753098 -4.524167274016196 -6.494140266482457 30.276646313687543 78.69377207529483 76.9333110739095 33.95967238614627 2.078587747170991 2.465791607579767 20.341215905824132 3.1621858488545826 0 0 0 0 0 0 0 0 0 0 0 0 0 0 0 0 0 0 0 0 0 0 0 0 0 0 0 0 0 0 0 0 0 0 0 0 0 0 0 0 0 0 0 0 0
0 -10.610138021295173 -7.516013686107422 0 -90 0 -0.013135782630380791 -3.040149554222045 13.184865196712396 0.8506154526042975 9.936851871609498 4.907488259590595 2.3959397165843432 13.60013783127389 6.052984300663472 0 0 0 -0.477964183141143 -0.9940057764771858 -13.973329277079158 -0.8001299080351776 8.772886395825857 -4.5955227227185445 -2.3999415304151075 13.59987870232295 -6.0569886142113925 0 0 0 0 13.593579760004879 0 -0.8420517681993601 41.02448034117365 -0.6895317175096785 0 0 0 5.017351720595181 -6.491228303023986 5.574680221176321 6.4121437553366425 30.39946244855702 -79.41216316834928 -77.27406657721826 33.94858908161191 -2.435763424843059 -2.480076907383912 20.008061663121314 -2.6099711927967193 0 0 0 0 0 0 0 0 0 0 0 0 0 0 0 0 0 0 0 0 0 0 0 0 0 0 0 0 0 0 0 0 0 0 0 0 0 0 0 0 0 0 0 0 0 0 -16.894278622224334 0 0 -42.79534332025744 0 0 0 0 0 0 0 0 0 0 -5.0988975269436745 -6.573137490235509 -4.956159288021957 -6.455242315027423 30.35121663932222 79.09062656607013 77.1482022722266 33.95150798427021 2.3095666041458993 2.439810247218157 19.995645041142954 2.67241632264036 0 0 0 0 0 0 0 0 0 0 0 0 0 0 0 0 0 0 0 0 0 0 0 0 0 0 0 0 0 0 0 0 0 0 0 0 0 0 0 0 0 0 0 0 0
